# xmcd
#
# Track frame offsets:
#	150
#	28270
#	58833
#	79440
#	95345
#	114855
#	133124
#	156271
#	183135
#	197799
#	220010
#	241608
#	262078
#	279946
#	302083
#	324935
#
# Disc length: 4570 seconds
#
# Revision: 0
# Processed by: cddbd v1.4PL0 Copyright (c) Steve Scherf et al.
# Submitted via: audiograbber 1.81.01
#
DISCID=db11d810
DTITLE=Nhung Tinh Khuc Bat Hu - Trinh Cong Son
DYEAR=2002
DGENRE=Pop
TTITLE0=bendoihiuquanh
TTITLE1=biennho
TTITLE2=bietdaunguoncoi
TTITLE3=bonmuathayla
TTITLE4=catbui
TTITLE5=contuoinaochoem
TTITLE6=doahoavothuong
TTITLE7=goitenbonmua
TTITLE8=mattroiemdiu
TTITLE9=motcoidive
TTITLE10=nhucanhvacbay
TTITLE11=otro
TTITLE12=rudoidinhe
TTITLE13=ruemtungngonxuanhong
TTITLE14=tuoidabuon
TTITLE15=tuoidoimenhmong
EXTD=
EXTT0=
EXTT1=
EXTT2=
EXTT3=
EXTT4=
EXTT5=
EXTT6=
EXTT7=
EXTT8=
EXTT9=
EXTT10=
EXTT11=
EXTT12=
EXTT13=
EXTT14=
EXTT15=
PLAYORDER=
